<?xml version="1.0" encoding="UTF-8" standalone="no"?>
<!-- Created with Inkscape (http://www.inkscape.org/) -->

<svg
   xmlns:osb="http://www.openswatchbook.org/uri/2009/osb"
   xmlns:dc="http://purl.org/dc/elements/1.1/"
   xmlns:cc="http://creativecommons.org/ns#"
   xmlns:rdf="http://www.w3.org/1999/02/22-rdf-syntax-ns#"
   xmlns:svg="http://www.w3.org/2000/svg"
   xmlns="http://www.w3.org/2000/svg"
   xmlns:sodipodi="http://sodipodi.sourceforge.net/DTD/sodipodi-0.dtd"
   xmlns:inkscape="http://www.inkscape.org/namespaces/inkscape"
   width="210mm"
   height="297mm"
   viewBox="0 0 744.09448819 1052.3622047"
   id="svg4820"
   version="1.1"
   inkscape:version="0.91 r13725"
   sodipodi:docname="ATmap.svg">
  <defs
     id="defs4822">
    <linearGradient
       id="linearGradient5611"
       osb:paint="solid">
      <stop
         style="stop-color:#000000;stop-opacity:1;"
         offset="0"
         id="stop5613" />
    </linearGradient>
  </defs>
  <sodipodi:namedview
     id="base"
     pagecolor="#ffffff"
     bordercolor="#666666"
     borderopacity="1.0"
     inkscape:pageopacity="0.0"
     inkscape:pageshadow="2"
     inkscape:zoom="0.71253428"
     inkscape:cx="408.40702"
     inkscape:cy="504.59356"
     inkscape:document-units="px"
     inkscape:current-layer="layer1"
     showgrid="false"
     inkscape:window-width="1240"
     inkscape:window-height="790"
     inkscape:window-x="190"
     inkscape:window-y="0"
     inkscape:window-maximized="0" />
  <metadata
     id="metadata4825">
    <rdf:RDF>
      <cc:Work
         rdf:about="">
        <dc:format>image/svg+xml</dc:format>
        <dc:type
           rdf:resource="http://purl.org/dc/dcmitype/StillImage" />
        <dc:title />
      </cc:Work>
    </rdf:RDF>
  </metadata>
  <g
     inkscape:label="Layer 1"
     inkscape:groupmode="layer"
     id="layer1">
    <g
       id="g4243"
       transform="matrix(2.9211092,0,0,2.9211092,-1073.7362,-211.96374)"
       style="fill:none;fill-opacity:1;stroke:#0000ff;stroke-opacity:1">
      <title
         id="title4245">Layer 1</title>
      <g
         id="layer1-6"
         style="fill:none;fill-opacity:1;stroke:#0000ff;stroke-opacity:1" />
      <path
         id="path2833"
         d="m 581,120.00018 3,-6 -1,-9 0,-7.999997 3,-8 3,0 2,1 5,-4 4,1 3,6 2,8.999997 2,3 4,1 2,4 4,1 2,3 -6,6 -8,7 -1,4 -4,5 -5,5 -2,8 -6,-9 -3,-8 -3,-12 z"
         inkscape:connector-curvature="0"
         style="fill:none;fill-opacity:1;stroke:#0000ff;stroke-width:1px;stroke-opacity:1" />
      <path
         id="path3607"
         d="m 577,124.00018 4,-4 3,12 3,8 6,9 -1,4 -6,2 -9,4 -2,-9 1,-13 2,-4 -1,-3 0,-6 z"
         inkscape:connector-curvature="0"
         style="fill:none;fill-opacity:1;stroke:#0000ff;stroke-width:1px;stroke-opacity:1" />
      <path
         id="path3609"
         d="m 570,160.00018 7,-1 -2,-9 1,-13 2,-4 -1,-3 0,-3 -8,1 -8,3 0,5 2,5 1,8 2,0 2,9 2,2 z"
         inkscape:connector-curvature="0"
         style="fill:none;fill-opacity:1;stroke:#0000ff;stroke-width:1px;stroke-opacity:1" />
      <path
         id="path3611"
         d="m 570,170.00018 0,-10 7,-1 15,-6 3,1 -1,4 3,3 4,3 3,0 -2,-3 3,0 2,3 -1,2 -4,3 1,3 -4,0 -1,-3 -3,0 -5,-4 -20,5 z"
         inkscape:connector-curvature="0"
         style="fill:none;fill-opacity:1;stroke:#0000ff;stroke-width:1px;stroke-opacity:1" />
      <path
         id="path3613"
         d="m 589,175.00018 -2,-9 3,-1 3,3 0,5 -4,2 z"
         inkscape:connector-curvature="0"
         style="fill:none;fill-opacity:1;stroke:#0000ff;stroke-width:1px;stroke-opacity:1" />
      <path
         id="path3615"
         d="m 573,185.00018 12,-8 4,0 0,-2 -2,-9 -17,4 0,4 3,11 z"
         inkscape:connector-curvature="0"
         style="fill:none;fill-opacity:1;stroke:#0000ff;stroke-width:1px;stroke-opacity:1" />
      <path
         id="path3617"
         d="m 509,187.00018 0,-5 7,-6 -3,-9 16,-1 9,-7 0,-7 -3,-2 13,-15 13,-4 0,5 2,5 1,8 2,0 2,9 2,2 0,10 0,4 3,11 4,0 9,-5 2,1 -12,9 -4,-1 0,-3 -7,-2 -9,-2 -1,-4 -4,-1 -6,0 -12,5 -4,0 -20,5 z"
         inkscape:connector-curvature="0"
         style="fill:none;fill-opacity:1;stroke:#0000ff;stroke-width:1px;stroke-opacity:1" />
      <path
         id="path3619"
         d="m 561,183.00018 -2,6 1,6 4,4 -6,8 2,5 1,-1 6,4 4,-7 1,-5 0,-5 -1,-4 -2,-2 1,-2 2,-1 0,-3 -11,-3 z"
         inkscape:connector-curvature="0"
         style="fill:none;fill-opacity:1;stroke:#0000ff;stroke-width:1px;stroke-opacity:1" />
      <path
         id="path3642"
         d="m 568,222.00017 -8,-9 0,-1 -2,-4 1,6 c 0,0 2,10 2,10 l 7,0 0,-2 z"
         inkscape:connector-curvature="0"
         style="fill:none;fill-opacity:1;stroke:#0000ff;stroke-width:1px;stroke-opacity:1" />
      <path
         id="path3644"
         d="m 519,217.00017 c 2,0 39,-10 39,-10 l 0,2 3,15 6,0 0,5.00001 -5,2 -1,-1 -5,-4.00001 -5,-11 1,10 2,4.00001 -5,0 -4,-1.00001 0,-2 1,-2 -1,-3 -5,-1 -3,-2 -2,-3 -4,0 -1,2 -4,1 -5,6 -2,-7 z"
         inkscape:connector-curvature="0"
         style="fill:none;fill-opacity:1;stroke:#0000ff;stroke-width:1px;stroke-opacity:1" />
      <path
         id="path3646"
         d="m 509,182.00018 -8,8 3,6 2,14 2,8 11,-1 39,-10 6,-8 -4,-4 -1,-6 2,-6 -5,-1 -1,-4 -4,-1 -6,0 -12,5 -4,0 -20,5 0,-5 z"
         inkscape:connector-curvature="0"
         style="fill:none;fill-opacity:1;stroke:#0000ff;stroke-width:1px;stroke-opacity:1" />
      <path
         id="path3648"
         d="m 465,234.00018 -5,-34 3,-1 12,-2 4,2 6,0 6,-2 10,-7 3,6 2,13 -1,11 -2,4 -6,4 0,4 -3,1 -1,4 -1,3 -4,0 -3,-3 -2,2 -6,0 -1,-1 -4,0 -2,-3 -5,-1 z"
         inkscape:connector-curvature="0"
         style="fill:none;fill-opacity:1;stroke:#0000ff;stroke-width:1px;stroke-opacity:1" />
      <path
         id="path3650"
         d="m 490,240.00018 0,4 3,4 9,6 6,-1 3,-2 5,-3 0,-6 2,-3 1,-4 5,-3 3,-4 4,-5 -1,-3 4,-1 3,2 2,-2 -2,-1 -2,-3 -4,0 -1,2 -4,1 -5,6 -2,-7 -11,1 -2,-8 -1,10 -2,4 -6,4 0,4 -3,1 -2,7 -2,0 z"
         inkscape:connector-curvature="0"
         style="fill:none;fill-opacity:1;stroke:#0000ff;stroke-width:1px;stroke-opacity:1" />
      <path
         id="path3652"
         d="m 482,266.00018 c 2,1 22,-3 22,-3 l 49,-9 12,-4 -2,-4 -5,0 -3,-3 2,-3 -3,-4 3,-1 -4,-3 -5,-2 -3,-2 0,-2 1,-2 -1,-3 -5,-1 -1,-1 -2,2 -3,-2 -4,1 1,3 -7,9 -5,3 -1,4 -2,3 0,6 -8,5 -6,1 -4,-3 -10,11 -6,4 z"
         inkscape:connector-curvature="0"
         style="fill:none;fill-opacity:1;stroke:#0000ff;stroke-width:1px;stroke-opacity:1" />
      <path
         id="path3654"
         d="m 563,232.00018 -1,5 0,5 3,-4 0,-5 -2,-1 z"
         inkscape:connector-curvature="0"
         style="fill:none;fill-opacity:1;stroke:#0000ff;stroke-width:1px;stroke-opacity:1" />
      <path
         id="path3656"
         d="m 504,263.00018 49,-9 12,-4 1,3 -2,3 -4,2 0,1 6,0 3,1 1,3 -2,2 -8,2 1,2 3,3 0,3 -5,2 -2,2 -6,6 0,4 -3,1 -5,2 -2,0 -9,-8 -4,-1 -7,1 -2,2 -3,0 0,-3 -2,-2 -3,1 -10,0 -5,2 -6,4 -13,0 0,-3 4,-4 5,-2 7,-6 3,-1 6,-4 2,-2 0,-3 z"
         inkscape:connector-curvature="0"
         style="fill:none;fill-opacity:1;stroke:#0000ff;stroke-width:1px;stroke-opacity:1" />
      <path
         id="path3658"
         d="m 490,288.00018 0,4 2,2 3,0 5,6 12,10 3,3 1,3 3,3 2,3 2,0 1,-5 1,-2 4,0 3,-3 0,-3 3,-3 3,-2 0,-4 3,-4 3,-4 -3,0 -9,-8 -4,-1 -7,1 -2,2 -3,0 0,-3 -2,-2 -3,1 -10,0 -5,2 -6,4 z"
         inkscape:connector-curvature="0"
         style="fill:none;fill-opacity:1;stroke:#0000ff;stroke-width:1px;stroke-opacity:1" />
      <path
         id="path3660"
         d="m 463,291.00018 3,-1 11,-2 13,0 0,4 2,2 3,0 5,6 15,13 1,3 3,3 2,3 -1,3 -2,3 0,13 -6,0 -1,5 -9,0 -23,1 -3,-3 -2,-11 2,-6 -8,-19 -5,-17 z"
         inkscape:connector-curvature="0"
         style="fill:none;fill-opacity:1;stroke:#0000ff;stroke-width:1px;stroke-opacity:1" />
      <path
         id="path3662"
         d="m 449,356.00018 -3,-8 13,-2 17,-2 3,3 23,-1 9,0 1,-5 6,0 4,13 9,12 1,6 10,14 2,3 1,20 -2,4 -6,1 -3,-1 -5,-6 -5,-1 -2,-7 -2,-1 -1,-4 -3,0 -3,-5 0,-6 -1,-2 -3,0 -2,1 -1,-3 2,-3 0,-8 -8,-5 -7,-6 -6,-1 -8,8 -4,-1 -4,-7 -7,-1 -3,-1 -12,2 z"
         inkscape:connector-curvature="0"
         style="fill:none;fill-opacity:1;stroke:#0000ff;stroke-width:1px;stroke-opacity:1" />
      <path
         id="path3664"
         d="m 435,295.00018 c 2,0 16,-2 16,-2 l 12,-2 5,17 8,19 -2,6 2,11 -30,4 3,8 -5,3 -6,0 -2,-25 -1,-39 z"
         inkscape:connector-curvature="0"
         style="fill:none;fill-opacity:1;stroke:#0000ff;stroke-width:1px;stroke-opacity:1" />
      <path
         id="path3666"
         d="m 428,364.00018 1,-2 7,0 2,-3 -2,-25 -1,-39 -22,1 -4,3 0,6 -6,9 1,15 3,4 -1,3 -4,4 -2,8 0,4 15,-1 5,-1 1,6 2,1 2,5 3,2 z"
         inkscape:connector-curvature="0"
         style="fill:none;fill-opacity:1;stroke:#0000ff;stroke-width:1px;stroke-opacity:1" />
      <path
         id="path3672"
         d="m 413,296.00018 0,-7 2,-3 2,-5 1,-4 2,-2 13,0 7,-2 14,-2 16,-2 9,-1 3,-2 1,0 21,-3 0,3 -8,6 -3,1 -7,6 -5,2 -4,4 0,3 -11,2 -3,1 -28,4 -22,1 z"
         inkscape:connector-curvature="0"
         style="fill:none;fill-opacity:1;stroke:#0000ff;stroke-width:1px;stroke-opacity:1" />
      <path
         id="path3674"
         d="m 420,275.00018 2,-3 0,-5 1,-2 5,0 5,-8 1,-2 9,-1 6,-1 0,-3 2,0 2,2 2,-1 1,-4 3,-4 0,-2 4,0 2,-2 0,-5 5,1 2,3 4,0 1,1 6,0 2,-2 3,3 2,0 0,4 3,4 5,3 -10,11 -9,6 -39,5 -7,2 -13,0 z"
         inkscape:connector-curvature="0"
         style="fill:none;fill-opacity:1;stroke:#0000ff;stroke-width:1px;stroke-opacity:1" />
      <path
         id="path3676"
         d="m 433,257.00018 0,-7 3,-5 1,-4 -1,-2 0,-4 1,-3 -1,-1 0,-7 -1,-3 -1,-6 0,-11 5,0 2,-2 9,-2 10,0 5,34 0,5 -2,2 -4,0 0,2 -3,4 -1,4 -2,1 -2,-2 -2,0 0,3 -6,1 -9,1 -1,2 z"
         inkscape:connector-curvature="0"
         style="fill:none;fill-opacity:1;stroke:#0000ff;stroke-width:1px;stroke-opacity:1" />
      <path
         id="path3678"
         d="M 441.23276,202.06052 450,200.00017 l 10,0 3,-1 12,-2 0,-6 6,-7 0,-6 -2,-4 -2,-8 -2,-2 -2,2 -6,7 -2,-1 -1,-3 4,-6 1,-1 0,-6 -2,-2 0,-3.99999 -3,-1 -4,-1 -5,-3 -2,0 -3,2 0,4 -1,0.99999 -1,4 -1,3 -4,0 -1,2 0,5 -2,4 0,7 2,4 2,3 0,3 0,7 -2,4 -0.76724,4.06035 z"
         inkscape:connector-curvature="0"
         style="fill:none;fill-opacity:1;stroke:#0000ff;stroke-width:1px;stroke-opacity:1" />
      <path
         id="path3680"
         d="m 426,157.00018 -1,-4 -1,-3 -5,-4 -6,0 -1,-1 -8,-1 -4,-5 9,-4 9,-8 2,1 -3,4 0,3 6,-1 5,4 7,0 3,-3 9,-3 1,3 3,0 6,-1 1,4 -1,3 -8,1 -3,-1 -5,3 -4,0 -2,3 -3,1 -6,9 z"
         inkscape:connector-curvature="0"
         style="fill:none;fill-opacity:1;stroke:#0000ff;stroke-width:1px;stroke-opacity:1" />
      <path
         id="path3682"
         d="M 428.194,193.11661 C 428,193.0002 401,195.0002 401,195.0002 l -5,-3 -2,-2 0,-7 -1,-6 -9,-8 -6,-2 -1,-11 -1,-1 1,-4 4,-2 0,-8 3,-2 6,-2.00002 3,1 7,1.00002 4,5 8,1 1,1 6,0 5,4 2,10 -2,2 0,4 4,-4 3,-4 -1,5 -1,7 -2,4 1.194,19.11641 0,0 z"
         inkscape:connector-curvature="0"
         style="fill:none;fill-opacity:1;stroke:#0000ff;stroke-width:1px;stroke-opacity:1" />
      <path
         id="path3684"
         d="m 428,193.00017 6,11 0,11 1,6 1,3 0,7.00001 1,1 -1,3 0,4 1,2 -1,4 -3,5 0,6 -5,9 -5,0 -1,2 -1,1 -2,0 -3,-9 -2,-3 -5,-1 -2,-3 1,-2 0,-6 -4,-1 -1,-3 -8,-7 -1,-9.00001 1,-3 3,-4 1,-3 -2,-1 1,-2 5,-3 3,-5 0,-2 -5,-6 27,-2 z"
         inkscape:connector-curvature="0"
         style="fill:none;fill-opacity:1;stroke:#0000ff;stroke-width:1px;stroke-opacity:1" />
    </g>
    <path
       style="opacity:0.99199997;fill:#00ffff;fill-opacity:1;stroke:none;stroke-width:1.87030733;stroke-miterlimit:4;stroke-dasharray:none;stroke-opacity:1"
       d="m 312.09261,671.88115 c -1.11687,-1.51416 -0.66677,-5.70463 0.73735,-6.86517 0.61002,-0.50422 1.40733,-1.787 1.77174,-2.85055 0.78643,-2.29524 1.33063,-2.63453 5.48743,-3.42056 1.82707,-0.34556 3.40635,-1.05433 3.73183,-1.67498 1.11942,-2.13436 3.3875,-4.13872 4.89514,-4.32605 1.43591,-0.17845 1.61941,-0.48132 2.75519,-4.54657 1.07849,-3.86021 1.09506,-4.56122 0.1458,-6.16549 -0.58907,-0.99554 -1.34221,-3.17558 -1.6736,-4.84445 -0.5698,-2.86933 -0.76206,-3.10724 -3.53489,-4.37463 -3.02531,-1.38283 -3.89119,-2.62091 -3.73367,-5.33863 0.19238,-3.31988 1.89673,-5.03583 7.79581,-7.84937 10.87432,-5.18639 16.51695,-9.76005 23.03962,-18.67501 3.74506,-5.11861 5.60205,-6.46299 7.92234,-5.73528 0.82196,0.25779 1.65373,0.0648 2.02803,-0.47045 3.14785,-4.50218 5.42844,-6.01611 9.26252,-6.14881 3.37333,-0.11675 3.77827,-1.0636 1.86394,-4.35841 l -1.64988,-2.83963 2.04883,-4.71341 c 1.57408,-3.62123 2.69081,-5.31791 4.81933,-7.32216 1.52378,-1.43483 2.9111,-3.04073 3.08294,-3.56867 0.17217,-0.52784 1.26661,-1.46502 2.43276,-2.0824 2.74605,-1.45385 5.90846,-6.51621 5.47546,-8.76511 -0.16029,-0.83229 -0.49938,-2.57442 -0.75356,-3.87131 -0.73285,-3.73893 -0.13641,-4.72931 3.63291,-6.03251 3.69691,-1.27814 4.29961,-1.623 8.87385,-5.07757 1.8661,-1.40935 3.7517,-3.48628 4.69166,-5.16775 0.86434,-1.54625 1.88012,-2.98489 2.25728,-3.19699 0.37713,-0.21209 0.85323,-0.9164 1.05798,-1.56511 0.58586,-1.85388 3.46694,-4.03607 5.49598,-4.16134 1.01717,-0.0628 3.06528,0.0916 4.55135,0.34309 2.25866,0.38235 3.72485,0.007 8.93763,-2.28862 3.42964,-1.51032 6.48487,-2.88688 6.78933,-3.0591 2.28016,-1.28968 5.39154,-3.54845 6.64894,-4.82695 0.82655,-0.84042 2.51259,-1.90828 3.74676,-2.37301 1.74452,-0.65694 2.8607,-1.76169 5.01522,-4.96382 1.52423,-2.26538 4.14046,-5.85544 5.81387,-7.97796 4.87734,-6.18626 10.94002,-19.92162 16.88824,-38.26113 2.56263,-7.90114 3.88553,-11.12803 6.20156,-15.12717 1.69778,-2.93161 3.58277,-7.10679 4.45289,-9.86309 0.82894,-2.62905 2.34402,-6.43239 3.36367,-8.45298 2.10496,-4.16886 2.76894,-7.80039 3.1878,-17.43535 0.33242,-7.64654 2.15642,-13.8799 5.01425,-17.1358 1.76837,-2.01471 2.19955,-3.02481 3.40108,-7.96757 1.71308,-7.04702 1.42017,-6.76743 15.06473,-14.38192 5.66779,-3.16301 10.93523,-6.29313 11.70537,-6.95582 0.77017,-0.66269 2.27936,-1.619 3.35376,-2.12514 1.07443,-0.50612 2.09237,-1.32503 2.26209,-1.81973 0.42818,-1.24812 2.62725,-3.22657 7.73766,-6.96145 2.40316,-1.75632 5.33065,-4.14089 6.50561,-5.29903 3.9285,-3.87235 12.3479,-14.10945 13.76937,-16.74208 2.04051,-3.77912 4.42362,-6.73841 5.10712,-6.34196 0.32635,0.18936 0.66876,0.10376 0.76077,-0.19016 0.0921,-0.29372 2.07381,-0.79776 4.40374,-1.12007 3.16422,-0.43778 5.17456,-1.20532 7.94413,-3.03301 4.93665,-3.25777 5.79977,-4.20244 8.72646,-9.55095 4.31122,-7.87877 5.31417,-9.93349 5.87416,-12.03429 0.29951,-1.12323 1.21682,-3.01995 2.03867,-4.21485 1.3978,-2.03222 1.43928,-2.30777 0.64211,-4.26651 -0.46873,-1.15171 -1.59549,-3.07704 -2.50389,-4.27853 -1.98098,-2.62018 -1.87222,-4.77305 0.54791,-10.84285 2.14538,-5.38082 2.28756,-9.71386 0.44015,-13.41439 -0.84003,-1.68263 -1.27094,-3.73096 -1.13336,-5.38712 0.12214,-1.46971 -0.0338,-4.18714 -0.3464,-6.0387 -0.38182,-2.26146 -0.2419,-4.98217 0.42629,-8.28857 1.12154,-5.54973 0.91071,-7.66001 -1.28618,-12.87375 -1.64669,-3.90795 -1.73523,-6.69271 -0.27303,-8.58374 0.57031,-0.73749 0.97123,-2.3516 1.06916,-4.3042 0.25462,-5.07706 1.63244,-6.35313 9.68736,-8.97151 4.94654,-1.60798 6.50344,-3.05038 7.83014,-7.25438 0.31261,-0.98971 1.27944,-2.64492 2.14909,-3.67805 0.86961,-1.03312 2.26092,-3.548 3.09179,-5.58863 0.83084,-2.04063 2.2168,-4.34239 3.07982,-5.11502 0.86302,-0.77264 1.98912,-2.3133 2.50249,-3.42373 1.03954,-2.24864 2.71288,-3.73771 5.02386,-4.47062 1.20536,-0.38229 1.58048,-0.87958 1.73192,-2.29596 0.10633,-0.99443 0.67897,-2.27265 1.27273,-2.84044 0.75043,-0.71776 1.97047,-4.05341 4.00331,-10.94525 2.34142,-7.93826 3.20089,-10.19213 4.31404,-11.31489 0.76458,-0.7711 1.87468,-2.37835 2.46686,-3.57166 0.5922,-1.19333 1.97663,-3.54799 3.07649,-5.23267 1.6588,-2.54078 2.01979,-3.53403 2.11742,-5.82604 0.16809,-3.94673 0.33597,-4.23974 3.23568,-5.64867 1.88126,-0.91405 2.76568,-1.76207 3.16474,-3.03448 0.57954,-1.84789 4.50287,-4.19311 10.29907,-6.15645 2.57854,-0.8734 2.66779,-0.98143 3.70824,-4.48765 2.41825,-8.14967 3.01212,-9.4463 5.44884,-11.89716 2.64027,-2.65568 2.78937,-3.67302 0.6371,-4.34801 -1.50208,-0.47108 -3.13866,-2.977957 -2.75103,-4.213957 0.12915,-0.411603 0.60926,-0.944109 1.06705,-1.183301 0.60563,-0.316434 0.80639,-1.036919 0.73707,-2.645181 -0.12966,-3.00833 1.18086,-4.926736 3.66249,-5.36126 3.99547,-0.699608 6.76752,2.438493 5.5587,6.292845 -0.41511,1.32347 -1.13209,2.054962 -2.53671,2.587858 l -1.95809,0.742879 1.08908,1.524015 c 0.93365,1.306582 0.94267,1.930672 0.0631,4.373912 -0.56422,1.56744 -1.90647,3.74766 -2.9826,4.84502 -1.61228,1.644 -2.30174,3.07372 -3.91734,8.12336 -1.07779,3.37075 -2.33032,6.49953 -2.78205,6.95332 -0.45173,0.4538 -2.16897,1.24009 -3.81607,1.7473 -5.6239,1.73188 -7.71058,3.03079 -8.3999,5.22877 -0.50517,1.61067 -1.14217,2.21782 -3.1691,3.02043 l -2.53692,1.00452 -0.32307,3.40201 c -0.28805,3.03328 -0.58332,3.75925 -2.72413,6.69797 -1.32055,1.81278 -2.61907,3.99118 -2.88555,4.8409 -0.26654,0.84973 -1.17182,2.36145 -2.01186,3.35941 -1.85225,2.20049 -5.94545,14.56152 -5.89717,17.80887 0.0253,1.69579 -0.28747,2.51069 -1.52955,3.98638 -0.85872,1.02015 -1.82479,2.69495 -2.14683,3.72175 -0.55187,1.75982 -2.90273,3.91049 -5.19732,4.75491 -0.55365,0.20368 -1.33644,1.19041 -1.73952,2.19263 -0.40312,1.00224 -1.58391,2.31489 -2.62401,2.91706 -1.39527,0.80776 -2.01373,1.63655 -2.35894,3.16114 -0.2573,1.13647 -1.55427,3.8596 -2.88214,6.05139 -1.32785,2.19179 -3.002,5.22343 -3.72035,6.73696 -2.00675,4.22826 -3.68928,5.8583 -6.97687,6.75916 -3.49945,0.95892 -7.80965,2.69325 -8.72737,3.51173 -0.35341,0.31523 -0.66425,1.99675 -0.69078,3.73669 -0.0348,2.27676 -0.33862,3.53224 -1.0842,4.4787 -1.36888,1.73771 -0.99898,5.60028 0.77399,8.0821 1.50356,2.10468 1.93687,7.6612 0.96481,12.37317 -0.51501,2.49659 -0.78584,5.87113 -0.60181,7.499 0.184,1.62788 0.21554,3.9599 0.0701,5.1823 -0.14574,1.224 0.36811,3.77614 1.14359,5.68059 2.01671,4.95265 1.92077,7.97517 -0.49799,15.6875 -1.73035,5.51736 -1.93002,6.69825 -1.29494,7.65728 0.41301,0.62363 1.35053,2.04523 2.08337,3.15911 1.98492,3.01685 2.196,5.64327 0.68238,8.49068 -0.6917,1.30121 -1.96378,4.08512 -2.82682,6.18647 -2.83103,6.89304 -8.61923,16.64115 -11.16913,18.81027 -3.97355,3.38016 -8.49981,5.63954 -12.16865,6.0742 -4.76283,0.5643 -5.75752,1.14362 -7.6846,4.47548 -0.84579,1.46237 -2.39816,3.63902 -3.44972,4.83706 -1.05158,1.19805 -2.03475,2.56983 -2.18484,3.04844 -0.44395,1.41543 -11.23101,12.93103 -13.3076,14.20627 -2.68206,1.6471 -9.99927,7.68977 -10.23958,8.45603 -0.45114,1.43856 -8.54219,6.62207 -21.7459,13.93148 -8.70582,4.81945 -10.25168,6.35471 -10.64335,10.57019 -0.41702,4.48825 -1.3125,6.85133 -3.40484,8.98486 -3.08777,3.14857 -4.81053,9.94979 -5.19315,20.50181 -0.0935,2.5789 -0.68094,6.37817 -1.30543,8.4428 -2.16833,7.16907 -8.11536,21.81969 -10.13174,24.95984 -1.4668,2.28427 -2.99171,6.09147 -5.51238,13.76255 -6.36749,19.37793 -12.99905,34.21273 -17.81278,39.84728 -1.72336,2.01724 -3.21395,3.9245 -3.3124,4.23839 -0.81805,2.60844 -4.24636,6.26357 -8.07499,8.6093 -2.36738,1.45043 -4.41192,2.94093 -4.54343,3.31223 -0.38847,1.09634 -7.03596,4.66197 -13.77093,7.38626 -5.00646,2.0251 -6.79562,2.44679 -8.87594,2.09189 -1.43304,-0.24458 -3.15842,-0.50525 -3.83419,-0.5795 -1.46854,-0.16143 -4.12509,2.08476 -4.72393,3.99418 -0.23562,0.75143 -1.01276,1.81582 -1.72692,2.36537 -0.71414,0.54954 -1.22561,1.28472 -1.13662,1.63375 0.51449,2.01782 -13.08985,12.38081 -15.33071,11.67803 -1.05838,-0.33197 -1.31505,2.11619 -0.51336,4.89676 0.71134,2.46717 0.64509,3.07927 -0.64367,5.94951 -2.30233,5.12765 -3.64141,6.90974 -5.73666,7.63459 -1.18412,0.4096 -2.77985,1.77541 -4.02746,3.44703 -1.13649,1.52273 -2.50861,3.0567 -3.04919,3.40883 -1.61967,1.05506 -3.69949,6.89078 -2.92993,8.22109 0.35684,0.61688 1.06542,1.83451 1.5746,2.7059 1.08477,1.85631 0.46746,4.4472 -1.54256,6.47437 -1.04141,1.05027 -1.95374,1.29826 -3.8286,1.04065 -2.74272,-0.37682 -4.05439,0.43239 -7.43756,4.58844 -1.13917,1.39939 -2.40289,2.47594 -2.80829,2.39227 -0.40543,-0.0835 -1.37474,-0.31667 -2.15418,-0.51754 -1.10282,-0.28438 -1.71373,0.0674 -2.7546,1.58628 -0.73561,1.0734 -1.71687,2.40174 -2.18058,2.95182 -0.46371,0.55013 -1.64229,2.02998 -2.61905,3.28858 -2.3282,2.99999 -8.16454,8.55971 -10.98587,10.4652 -1.2307,0.83122 -5.36038,3.05828 -9.17704,4.94907 -3.81665,1.89086 -7.08476,3.90139 -7.26244,4.46792 -0.72815,2.32177 -0.2613,3.04968 2.51375,3.92001 3.09128,0.9695 4.54659,3.14223 4.90768,7.32697 0.1127,1.30598 0.66756,2.69877 1.23318,3.09509 1.09548,0.76766 1.60399,3.63636 0.96591,5.44894 -0.21237,0.60265 -0.78965,2.39191 -1.28297,3.97604 -1.211,3.88949 -2.86238,6.04265 -4.81878,6.28575 -1.0281,0.12775 -1.77982,0.68175 -2.04477,1.50691 -0.23161,0.71726 -0.71166,1.55154 -1.06928,1.85321 -0.87702,0.73961 -5.39259,2.0707 -7.04354,2.07637 -0.73216,0.002 -1.44447,0.36552 -1.58285,0.80682 -0.24825,0.79175 1.17919,3.82951 1.9067,4.05768 0.53418,0.16752 0.85277,3.27328 0.46293,4.51576 -0.18057,0.57561 -1.07921,1.56085 -1.99711,2.18925 -1.27087,0.87017 -2.18176,0.9818 -3.81972,0.46811 -1.18302,-0.37101 -2.49954,-1.14719 -2.92557,-1.72484 z"
       id="path4786"
       inkscape:connector-curvature="0" />
    <ellipse
       style="opacity:1;fill:#000000;fill-opacity:0;stroke:#000000;stroke-width:2;stroke-miterlimit:4;stroke-dasharray:none;stroke-opacity:0"
       id="path4165"
       cx="66.312599"
       cy="670.27533"
       rx="19.297318"
       ry="16.490435" />
    <path
       style="fill:#000000;fill-opacity:1;stroke:none;stroke-width:0;stroke-miterlimit:4;stroke-dasharray:none;stroke-opacity:0"
       d="m 315.79177,673.95462 c -1.20784,-0.12161 -2.35199,-0.66703 -3.21988,-1.53491 -1.12093,-1.12093 -1.68887,-2.68722 -1.53771,-4.24071 0.16069,-1.65126 1.0328,-3.07999 2.43997,-3.99722 0.9421,-0.6141 2.201,-0.91885 3.33844,-0.80816 1.64259,0.15984 3.07448,1.0299 3.986,2.42203 0.62253,0.95076 0.93066,2.21293 0.81939,3.35637 -0.12181,1.25178 -0.65513,2.38511 -1.53771,3.26769 -1.13036,1.13035 -2.70587,1.69425 -4.2885,1.53491 z m 1.03493,-0.1951 c 1.18339,-0.11723 2.27226,-0.63343 3.1161,-1.47728 1.8107,-1.8107 2.00753,-4.64797 0.46513,-6.70464 -0.37287,-0.49721 -0.94043,-1.00355 -1.48233,-1.32248 -2.4336,-1.43225 -5.58125,-0.61662 -7.01376,1.81742 -1.18057,2.00596 -0.85261,4.55957 0.79752,6.2097 1.08808,1.08807 2.59354,1.62823 4.11734,1.47728 z"
       id="path6224"
       inkscape:connector-curvature="0" />
    <path
       style="fill:#000000;fill-opacity:1;stroke:none;stroke-width:0;stroke-miterlimit:4;stroke-dasharray:none;stroke-opacity:0"
       d="m 322.95971,631.00448 c -1.20784,-0.12161 -2.35199,-0.66703 -3.21988,-1.53491 -1.12093,-1.12093 -1.68887,-2.68722 -1.53771,-4.24071 0.16069,-1.65126 1.0328,-3.07999 2.43997,-3.99722 0.9421,-0.6141 2.201,-0.91885 3.33844,-0.80816 1.64259,0.15984 3.07448,1.0299 3.986,2.42203 0.62253,0.95076 0.93066,2.21293 0.81939,3.35637 -0.12181,1.25178 -0.65513,2.38511 -1.53771,3.26769 -1.13036,1.13035 -2.70587,1.69425 -4.2885,1.53491 z m 1.03493,-0.1951 c 1.18339,-0.11723 2.27226,-0.63343 3.1161,-1.47728 1.8107,-1.8107 2.00753,-4.64797 0.46513,-6.70464 -0.37287,-0.49721 -0.94043,-1.00355 -1.48233,-1.32248 -2.4336,-1.43225 -5.58125,-0.61662 -7.01376,1.81742 -1.18057,2.00596 -0.85261,4.55957 0.79752,6.2097 1.08808,1.08807 2.59354,1.62823 4.11734,1.47728 z"
       id="path6224-4"
       inkscape:connector-curvature="0" />
    <path
       style="fill:#000000;fill-opacity:1;stroke:none;stroke-width:0;stroke-miterlimit:4;stroke-dasharray:none;stroke-opacity:0"
       d="m 392.66877,550.70306 c -1.20784,-0.12161 -2.35199,-0.66703 -3.21988,-1.53491 -1.12093,-1.12093 -1.68887,-2.68722 -1.53771,-4.24071 0.16069,-1.65126 1.0328,-3.07999 2.43997,-3.99722 0.9421,-0.6141 2.201,-0.91885 3.33844,-0.80816 1.64259,0.15984 3.07448,1.0299 3.986,2.42203 0.62253,0.95076 0.93066,2.21293 0.81939,3.35637 -0.12181,1.25178 -0.65513,2.38511 -1.53771,3.26769 -1.13036,1.13035 -2.70587,1.69425 -4.2885,1.53491 z m 1.03493,-0.1951 c 1.18339,-0.11723 2.27226,-0.63343 3.1161,-1.47728 1.8107,-1.8107 2.00753,-4.64797 0.46513,-6.70464 -0.37287,-0.49721 -0.94043,-1.00355 -1.48233,-1.32248 -2.4336,-1.43225 -5.58125,-0.61662 -7.01376,1.81742 -1.18057,2.00596 -0.85261,4.55957 0.79752,6.2097 1.08808,1.08807 2.59354,1.62823 4.11734,1.47728 z"
       id="path6224-3"
       inkscape:connector-curvature="0" />
    <path
       style="fill:#000000;fill-opacity:1;stroke:none;stroke-width:0;stroke-miterlimit:4;stroke-dasharray:none;stroke-opacity:0"
       d="m 380.40932,573.6732 c -1.20784,-0.12161 -2.35199,-0.66703 -3.21988,-1.53491 -1.12093,-1.12093 -1.68887,-2.68722 -1.53771,-4.24071 0.16069,-1.65126 1.0328,-3.07999 2.43997,-3.99722 0.9421,-0.6141 2.201,-0.91885 3.33844,-0.80816 1.64259,0.15984 3.07448,1.0299 3.986,2.42203 0.62253,0.95076 0.93066,2.21293 0.81939,3.35637 -0.12181,1.25178 -0.65513,2.38511 -1.53771,3.26769 -1.13036,1.13035 -2.70587,1.69425 -4.2885,1.53491 z m 1.03493,-0.1951 c 1.18339,-0.11723 2.27226,-0.63343 3.1161,-1.47728 1.8107,-1.8107 2.00753,-4.64797 0.46513,-6.70464 -0.37287,-0.49721 -0.94043,-1.00355 -1.48233,-1.32248 -2.4336,-1.43225 -5.58125,-0.61662 -7.01376,1.81742 -1.18057,2.00596 -0.85261,4.55957 0.79752,6.2097 1.08808,1.08807 2.59354,1.62823 4.11734,1.47728 z"
       id="path6224-2"
       inkscape:connector-curvature="0" />
    <path
       style="fill:#000000;fill-opacity:1;stroke:none;stroke-width:0;stroke-miterlimit:4;stroke-dasharray:none;stroke-opacity:0"
       d="m 368.235,598.04678 c -1.20784,-0.12161 -2.35199,-0.66703 -3.21988,-1.53491 -1.12093,-1.12093 -1.68887,-2.68722 -1.53771,-4.24071 0.16069,-1.65126 1.0328,-3.07999 2.43997,-3.99722 0.9421,-0.6141 2.201,-0.91885 3.33844,-0.80816 1.64259,0.15984 3.07448,1.0299 3.986,2.42203 0.62253,0.95076 0.93066,2.21293 0.81939,3.35637 -0.12181,1.25178 -0.65513,2.38511 -1.53771,3.26769 -1.13036,1.13035 -2.70587,1.69425 -4.2885,1.53491 z m 1.03493,-0.1951 c 1.18339,-0.11723 2.27226,-0.63343 3.1161,-1.47728 1.8107,-1.8107 2.00753,-4.64797 0.46513,-6.70464 -0.37287,-0.49721 -0.94043,-1.00355 -1.48233,-1.32248 -2.4336,-1.43225 -5.58125,-0.61662 -7.01376,1.81742 -1.18057,2.00596 -0.85261,4.55957 0.79752,6.2097 1.08808,1.08807 2.59354,1.62823 4.11734,1.47728 z"
       id="path6224-20"
       inkscape:connector-curvature="0" />
    <path
       style="fill:#000000;fill-opacity:1;stroke:#000003;stroke-width:0;stroke-miterlimit:4;stroke-dasharray:none;stroke-opacity:1"
       d="m 347.5214,616.6183 c -1.20821,-0.1258 -2.3527,-0.69001 -3.22087,-1.58779 -1.12127,-1.15954 -1.68937,-2.77979 -1.53817,-4.38679 0.16073,-1.70815 1.03311,-3.18609 2.44071,-4.13493 0.94239,-0.63525 2.20169,-0.95049 3.33947,-0.83599 1.64308,0.16534 3.07541,1.06538 3.98721,2.50545 0.62272,0.98353 0.93095,2.28916 0.81964,3.472 -0.12185,1.29491 -0.65532,2.46728 -1.53818,3.38026 -1.13071,1.16929 -2.70669,1.75261 -4.28981,1.58779 z m 1.03525,-0.20183 c 1.18375,-0.12126 2.27295,-0.65525 3.11706,-1.52816 1.81124,-1.87308 2.00813,-4.80809 0.46526,-6.93561 -0.37299,-0.51434 -0.94071,-1.03812 -1.48279,-1.36804 -2.43433,-1.48159 -5.58294,-0.63786 -7.01589,1.88003 -1.18094,2.07505 -0.85288,4.71664 0.79776,6.42362 1.08841,1.12555 2.59433,1.68431 4.1186,1.52816 z"
       id="path6224-05"
       inkscape:connector-curvature="0" />
    <path
       style="fill:#000000;fill-opacity:1;stroke:none;stroke-width:0;stroke-miterlimit:4;stroke-dasharray:none;stroke-opacity:0"
       d="m 333.48553,652.75782 c -1.20784,-0.12161 -2.35199,-0.66703 -3.21988,-1.53491 -1.12093,-1.12093 -1.68887,-2.68722 -1.53771,-4.24071 0.16069,-1.65126 1.0328,-3.07999 2.43997,-3.99722 0.9421,-0.6141 2.201,-0.91885 3.33844,-0.80816 1.64259,0.15984 3.07448,1.0299 3.986,2.42203 0.62253,0.95076 0.93066,2.21293 0.81939,3.35637 -0.12181,1.25178 -0.65513,2.38511 -1.53771,3.26769 -1.13036,1.13035 -2.70587,1.69425 -4.2885,1.53491 z m 1.03493,-0.1951 c 1.18339,-0.11723 2.27226,-0.63343 3.1161,-1.47728 1.8107,-1.8107 2.00753,-4.64797 0.46513,-6.70464 -0.37287,-0.49721 -0.94043,-1.00355 -1.48233,-1.32248 -2.4336,-1.43225 -5.58125,-0.61662 -7.01376,1.81742 -1.18057,2.00596 -0.85261,4.55957 0.79752,6.2097 1.08808,1.08807 2.59354,1.62823 4.11734,1.47728 z"
       id="path6224-203"
       inkscape:connector-curvature="0" />
    <path
       style="fill:#000000;fill-opacity:1;stroke:none;stroke-width:0;stroke-miterlimit:4;stroke-dasharray:none;stroke-opacity:0"
       d="m 481.02028,453.53757 c -1.20784,-0.12161 -2.35199,-0.66703 -3.21988,-1.53491 -1.12093,-1.12093 -1.68887,-2.68722 -1.53771,-4.24071 0.16069,-1.65126 1.0328,-3.07999 2.43997,-3.99722 0.9421,-0.6141 2.201,-0.91885 3.33844,-0.80816 1.64259,0.15984 3.07448,1.0299 3.986,2.42203 0.62253,0.95076 0.93066,2.21293 0.81939,3.35637 -0.12181,1.25178 -0.65513,2.38511 -1.53771,3.26769 -1.13036,1.13035 -2.70587,1.69425 -4.2885,1.53491 z m 1.03493,-0.1951 c 1.18339,-0.11723 2.27226,-0.63343 3.1161,-1.47728 1.8107,-1.8107 2.00753,-4.64797 0.46513,-6.70464 -0.37287,-0.49721 -0.94043,-1.00355 -1.48233,-1.32248 -2.4336,-1.43225 -5.58125,-0.61662 -7.01376,1.81742 -1.18057,2.00596 -0.85261,4.55957 0.79752,6.2097 1.08808,1.08807 2.59354,1.62823 4.11734,1.47728 z"
       id="path6224-3-1"
       inkscape:connector-curvature="0" />
    <path
       style="fill:#000000;fill-opacity:1;stroke:none;stroke-width:0;stroke-miterlimit:4;stroke-dasharray:none;stroke-opacity:0"
       d="m 471.84073,480.08382 c -1.20784,-0.12161 -2.35199,-0.66703 -3.21988,-1.53491 -1.12093,-1.12093 -1.68887,-2.68722 -1.53771,-4.24071 0.16069,-1.65126 1.0328,-3.07999 2.43997,-3.99722 0.9421,-0.6141 2.201,-0.91885 3.33844,-0.80816 1.64259,0.15984 3.07448,1.0299 3.986,2.42203 0.62253,0.95076 0.93066,2.21293 0.81939,3.35637 -0.12181,1.25178 -0.65513,2.38511 -1.53771,3.26769 -1.13036,1.13035 -2.70587,1.69425 -4.2885,1.53491 z m 1.03493,-0.1951 c 1.18339,-0.11723 2.27226,-0.63343 3.1161,-1.47728 1.8107,-1.8107 2.00753,-4.64797 0.46513,-6.70464 -0.37287,-0.49721 -0.94043,-1.00355 -1.48233,-1.32248 -2.4336,-1.43225 -5.58125,-0.61662 -7.01376,1.81742 -1.18057,2.00596 -0.85261,4.55957 0.79752,6.2097 1.08808,1.08807 2.59354,1.62823 4.11734,1.47728 z"
       id="path6224-3-3"
       inkscape:connector-curvature="0" />
    <path
       style="fill:#000000;fill-opacity:1;stroke:none;stroke-width:0;stroke-miterlimit:4;stroke-dasharray:none;stroke-opacity:0"
       d="m 459.68405,505.63768 c -1.20784,-0.12161 -2.35199,-0.66704 -3.21988,-1.53492 -1.12093,-1.12093 -1.68887,-2.68722 -1.53771,-4.24071 0.16069,-1.65126 1.0328,-3.07999 2.43997,-3.99722 0.9421,-0.6141 2.201,-0.91885 3.33844,-0.80816 1.64259,0.15984 3.07448,1.0299 3.986,2.42203 0.62253,0.95076 0.93066,2.21293 0.81939,3.35637 -0.12181,1.25178 -0.65513,2.38511 -1.53771,3.26769 -1.13036,1.13036 -2.70587,1.69426 -4.2885,1.53492 z m 1.03493,-0.1951 c 1.18339,-0.11723 2.27226,-0.63344 3.1161,-1.47729 1.8107,-1.8107 2.00753,-4.64797 0.46513,-6.70464 -0.37287,-0.49721 -0.94043,-1.00355 -1.48233,-1.32248 -2.4336,-1.43225 -5.58125,-0.61662 -7.01376,1.81742 -1.18057,2.00596 -0.85261,4.55957 0.79752,6.2097 1.08808,1.08808 2.59354,1.62824 4.11734,1.47729 z"
       id="path6224-3-6"
       inkscape:connector-curvature="0" />
    <path
       style="fill:#000000;fill-opacity:1;stroke:none;stroke-width:0;stroke-miterlimit:4;stroke-dasharray:none;stroke-opacity:0"
       d="m 439.54092,524.77094 c -1.20784,-0.12161 -2.35199,-0.66703 -3.21988,-1.53491 -1.12093,-1.12093 -1.68887,-2.68722 -1.53771,-4.24071 0.16069,-1.65126 1.0328,-3.07999 2.43997,-3.99722 0.9421,-0.6141 2.201,-0.91885 3.33844,-0.80816 1.64259,0.15984 3.07448,1.0299 3.986,2.42203 0.62253,0.95076 0.93066,2.21293 0.81939,3.35637 -0.12181,1.25178 -0.65513,2.38511 -1.53771,3.26769 -1.13036,1.13035 -2.70587,1.69425 -4.2885,1.53491 z m 1.03493,-0.1951 c 1.18339,-0.11723 2.27226,-0.63343 3.1161,-1.47728 1.8107,-1.8107 2.00753,-4.64797 0.46513,-6.70464 -0.37287,-0.49721 -0.94043,-1.00355 -1.48233,-1.32248 -2.4336,-1.43225 -5.58125,-0.61662 -7.01376,1.81742 -1.18057,2.00596 -0.85261,4.55957 0.79752,6.2097 1.08808,1.08807 2.59354,1.62823 4.11734,1.47728 z"
       id="path6224-3-0"
       inkscape:connector-curvature="0" />
    <path
       style="fill:#000000;fill-opacity:1;stroke:none;stroke-width:0;stroke-miterlimit:4;stroke-dasharray:none;stroke-opacity:0"
       d="m 413.78634,533.4244 c -1.20784,-0.12161 -2.35199,-0.66704 -3.21988,-1.53492 -1.12093,-1.12093 -1.68887,-2.68722 -1.53771,-4.24071 0.16069,-1.65126 1.0328,-3.07999 2.43997,-3.99722 0.9421,-0.6141 2.201,-0.91885 3.33844,-0.80816 1.64259,0.15984 3.07448,1.0299 3.986,2.42203 0.62253,0.95076 0.93066,2.21293 0.81939,3.35637 -0.12181,1.25178 -0.65513,2.38511 -1.53771,3.26769 -1.13036,1.13036 -2.70587,1.69426 -4.2885,1.53492 z m 1.03493,-0.1951 c 1.18339,-0.11723 2.27226,-0.63344 3.1161,-1.47729 1.8107,-1.8107 2.00753,-4.64797 0.46513,-6.70464 -0.37287,-0.49721 -0.94043,-1.00355 -1.48233,-1.32248 -2.4336,-1.43225 -5.58125,-0.61662 -7.01376,1.81742 -1.18057,2.00596 -0.85261,4.55957 0.79752,6.2097 1.08808,1.08808 2.59354,1.62824 4.11734,1.47729 z"
       id="path6224-3-34"
       inkscape:connector-curvature="0" />
    <path
       style="fill:#000000;fill-opacity:1;stroke:none;stroke-width:0;stroke-miterlimit:4;stroke-dasharray:none;stroke-opacity:0"
       d="m 536.84182,363.72693 c -1.20784,-0.12161 -2.35199,-0.66703 -3.21988,-1.53491 -1.12094,-1.12093 -1.68888,-2.68722 -1.53772,-4.24071 0.16069,-1.65126 1.03281,-3.07999 2.43998,-3.99722 0.9421,-0.6141 2.201,-0.91885 3.33844,-0.80816 1.64259,0.15984 3.07448,1.0299 3.986,2.42203 0.62253,0.95076 0.93066,2.21293 0.81939,3.35637 -0.12181,1.25178 -0.65513,2.38511 -1.53771,3.26769 -1.13036,1.13035 -2.70587,1.69425 -4.2885,1.53491 z m 1.03493,-0.1951 c 1.18339,-0.11723 2.27226,-0.63343 3.1161,-1.47728 1.8107,-1.8107 2.00753,-4.64797 0.46513,-6.70464 -0.37287,-0.49721 -0.94043,-1.00355 -1.48233,-1.32248 -2.4336,-1.43225 -5.58125,-0.61662 -7.01377,1.81742 -1.18057,2.00596 -0.85261,4.55957 0.79753,6.2097 1.08808,1.08807 2.59354,1.62823 4.11734,1.47728 z"
       id="path6224-3-00"
       inkscape:connector-curvature="0" />
    <path
       style="fill:#000000;fill-opacity:1;stroke:none;stroke-width:0;stroke-miterlimit:4;stroke-dasharray:none;stroke-opacity:0"
       d="m 514.017,379.10887 c -1.20784,-0.12161 -2.35199,-0.66703 -3.21988,-1.53491 -1.12093,-1.12093 -1.68887,-2.68722 -1.53771,-4.24071 0.16069,-1.65126 1.0328,-3.07999 2.43997,-3.99722 0.9421,-0.6141 2.201,-0.91885 3.33844,-0.80816 1.64259,0.15984 3.07448,1.0299 3.986,2.42203 0.62253,0.95076 0.93066,2.21293 0.81939,3.35637 -0.12181,1.25178 -0.65513,2.38511 -1.53771,3.26769 -1.13036,1.13035 -2.70587,1.69425 -4.2885,1.53491 z m 1.03493,-0.1951 c 1.18339,-0.11723 2.27226,-0.63343 3.1161,-1.47728 1.8107,-1.8107 2.00753,-4.64797 0.46513,-6.70464 -0.37287,-0.49721 -0.94043,-1.00355 -1.48233,-1.32248 -2.4336,-1.43225 -5.58125,-0.61662 -7.01376,1.81742 -1.18057,2.00596 -0.85261,4.55957 0.79752,6.2097 1.08808,1.08807 2.59354,1.62823 4.11734,1.47728 z"
       id="path6224-3-8"
       inkscape:connector-curvature="0" />
    <path
       style="fill:#000000;fill-opacity:1;stroke:none;stroke-width:0;stroke-miterlimit:4;stroke-dasharray:none;stroke-opacity:0"
       d="m 496.8984,400.69319 c -1.20784,-0.12161 -2.35199,-0.66703 -3.21988,-1.53491 -1.12093,-1.12093 -1.68887,-2.68722 -1.53771,-4.24071 0.16069,-1.65126 1.0328,-3.07999 2.43997,-3.99722 0.9421,-0.6141 2.201,-0.91885 3.33844,-0.80816 1.64259,0.15984 3.07448,1.0299 3.986,2.42203 0.62253,0.95076 0.93066,2.21293 0.81939,3.35637 -0.12181,1.25178 -0.65513,2.38511 -1.53771,3.26769 -1.13036,1.13035 -2.70587,1.69425 -4.2885,1.53491 z m 1.03493,-0.1951 c 1.18339,-0.11723 2.27226,-0.63343 3.1161,-1.47728 1.8107,-1.8107 2.00753,-4.64797 0.46513,-6.70464 -0.37287,-0.49721 -0.94043,-1.00355 -1.48233,-1.32248 -2.4336,-1.43225 -5.58125,-0.61662 -7.01376,1.81742 -1.18057,2.00596 -0.85261,4.55957 0.79752,6.2097 1.08808,1.08807 2.59354,1.62823 4.11734,1.47728 z"
       id="path6224-3-83"
       inkscape:connector-curvature="0" />
    <path
       style="fill:#000000;fill-opacity:1;stroke:none;stroke-width:0;stroke-miterlimit:4;stroke-dasharray:none;stroke-opacity:0"
       d="m 491.68839,427.73562 c -1.20784,-0.12161 -2.35199,-0.66703 -3.21988,-1.53491 -1.12093,-1.12093 -1.68887,-2.68722 -1.53771,-4.24071 0.16069,-1.65126 1.0328,-3.07999 2.43997,-3.99722 0.9421,-0.6141 2.201,-0.91885 3.33844,-0.80816 1.64259,0.15984 3.07448,1.0299 3.986,2.42203 0.62254,0.95076 0.93067,2.21293 0.8194,3.35637 -0.12181,1.25178 -0.65514,2.38511 -1.53772,3.26769 -1.13036,1.13035 -2.70587,1.69425 -4.2885,1.53491 z m 1.03493,-0.1951 c 1.18339,-0.11723 2.27226,-0.63343 3.1161,-1.47728 1.81071,-1.8107 2.00754,-4.64797 0.46513,-6.70464 -0.37287,-0.49721 -0.94043,-1.00355 -1.48233,-1.32248 -2.4336,-1.43225 -5.58125,-0.61662 -7.01376,1.81742 -1.18057,2.00596 -0.85261,4.55957 0.79752,6.2097 1.08808,1.08807 2.59354,1.62823 4.11734,1.47728 z"
       id="path6224-3-30"
       inkscape:connector-curvature="0" />
    <path
       style="fill:#000000;fill-opacity:1;stroke:none;stroke-width:0;stroke-miterlimit:4;stroke-dasharray:none;stroke-opacity:0"
       d="m 595.3924,277.14153 c -1.20784,-0.12161 -2.35199,-0.66703 -3.21988,-1.53491 -1.12093,-1.12093 -1.68887,-2.68722 -1.53771,-4.24071 0.16069,-1.65126 1.0328,-3.07999 2.43997,-3.99722 0.9421,-0.6141 2.201,-0.91885 3.33844,-0.80816 1.64259,0.15984 3.07448,1.0299 3.986,2.42203 0.62253,0.95076 0.93066,2.21293 0.81939,3.35637 -0.12181,1.25178 -0.65513,2.38511 -1.53771,3.26769 -1.13036,1.13035 -2.70587,1.69425 -4.2885,1.53491 z m 1.03493,-0.1951 c 1.18339,-0.11723 2.27226,-0.63343 3.1161,-1.47728 1.8107,-1.8107 2.00753,-4.64797 0.46513,-6.70464 -0.37287,-0.49721 -0.94043,-1.00355 -1.48233,-1.32248 -2.4336,-1.43225 -5.58125,-0.61662 -7.01376,1.81742 -1.18057,2.00596 -0.85261,4.55957 0.79752,6.2097 1.08808,1.08807 2.59354,1.62823 4.11734,1.47728 z"
       id="path6224-3-14"
       inkscape:connector-curvature="0" />
    <path
       style="fill:#000000;fill-opacity:1;stroke:none;stroke-width:0;stroke-miterlimit:4;stroke-dasharray:none;stroke-opacity:0"
       d="m 556.93756,344.37546 c -1.20784,-0.12161 -2.35199,-0.66703 -3.21988,-1.53491 -1.12093,-1.12093 -1.68887,-2.68722 -1.53771,-4.24071 0.16069,-1.65126 1.0328,-3.07999 2.43997,-3.99722 0.9421,-0.6141 2.201,-0.91885 3.33844,-0.80816 1.64259,0.15984 3.07448,1.0299 3.986,2.42203 0.62253,0.95076 0.93066,2.21293 0.81939,3.35637 -0.12181,1.25178 -0.65513,2.38511 -1.53771,3.26769 -1.13036,1.13035 -2.70587,1.69425 -4.2885,1.53491 z m 1.03493,-0.1951 c 1.18339,-0.11723 2.27226,-0.63343 3.1161,-1.47728 1.8107,-1.8107 2.00753,-4.64797 0.46513,-6.70464 -0.37287,-0.49721 -0.94043,-1.00355 -1.48233,-1.32248 -2.4336,-1.43225 -5.58125,-0.61662 -7.01376,1.81742 -1.18057,2.00596 -0.85261,4.55957 0.79752,6.2097 1.08808,1.08807 2.59354,1.62823 4.11734,1.47728 z"
       id="path6224-3-2"
       inkscape:connector-curvature="0" />
    <path
       style="fill:#000000;fill-opacity:1;stroke:none;stroke-width:0;stroke-miterlimit:4;stroke-dasharray:none;stroke-opacity:0"
       d="m 595.1443,305.42443 c -1.20784,-0.12161 -2.35199,-0.66703 -3.21988,-1.53491 -1.12093,-1.12093 -1.68887,-2.68722 -1.53771,-4.24071 0.16069,-1.65126 1.0328,-3.07999 2.43997,-3.99722 0.9421,-0.6141 2.201,-0.91885 3.33844,-0.80816 1.64259,0.15984 3.07448,1.0299 3.986,2.42203 0.62253,0.95076 0.93066,2.21293 0.81939,3.35637 -0.12181,1.25178 -0.65513,2.38511 -1.53771,3.26769 -1.13036,1.13035 -2.70587,1.69425 -4.2885,1.53491 z m 1.03493,-0.1951 c 1.18339,-0.11723 2.27226,-0.63343 3.1161,-1.47728 1.8107,-1.8107 2.00753,-4.64797 0.46513,-6.70464 -0.37287,-0.49721 -0.94043,-1.00355 -1.48233,-1.32248 -2.4336,-1.43225 -5.58125,-0.61662 -7.01376,1.81742 -1.18057,2.00596 -0.85261,4.55957 0.79752,6.2097 1.08808,1.08807 2.59354,1.62823 4.11734,1.47728 z"
       id="path6224-3-16"
       inkscape:connector-curvature="0" />
    <path
       style="fill:#000000;fill-opacity:1;stroke:none;stroke-width:0;stroke-miterlimit:4;stroke-dasharray:none;stroke-opacity:0"
       d="m 578.52189,328.24925 c -1.20784,-0.12161 -2.35199,-0.66703 -3.21988,-1.53491 -1.12093,-1.12093 -1.68887,-2.68722 -1.53771,-4.24071 0.16069,-1.65126 1.0328,-3.07999 2.43997,-3.99722 0.9421,-0.6141 2.201,-0.91885 3.33844,-0.80816 1.64259,0.15984 3.07448,1.0299 3.986,2.42203 0.62253,0.95076 0.93066,2.21293 0.81939,3.35637 -0.12181,1.25178 -0.65513,2.38511 -1.53771,3.26769 -1.13036,1.13035 -2.70587,1.69425 -4.2885,1.53491 z m 1.03493,-0.1951 c 1.18339,-0.11723 2.27226,-0.63343 3.1161,-1.47728 1.8107,-1.8107 2.00753,-4.64797 0.46513,-6.70464 -0.37287,-0.49721 -0.94043,-1.00355 -1.48233,-1.32248 -2.4336,-1.43225 -5.58125,-0.61662 -7.01376,1.81742 -1.18057,2.00596 -0.85261,4.55957 0.79752,6.2097 1.08808,1.08807 2.59354,1.62823 4.11734,1.47728 z"
       id="path6224-3-11"
       inkscape:connector-curvature="0" />
    <path
       style="fill:#000000;fill-opacity:1;stroke:none;stroke-width:0;stroke-miterlimit:4;stroke-dasharray:none;stroke-opacity:0"
       d="m 616.23243,199.73567 c -1.20784,-0.12161 -2.35199,-0.66703 -3.21988,-1.53491 -1.12093,-1.12093 -1.68887,-2.68722 -1.53771,-4.24071 0.16069,-1.65126 1.0328,-3.07999 2.43997,-3.99722 0.9421,-0.6141 2.201,-0.91885 3.33844,-0.80816 1.64259,0.15984 3.07448,1.0299 3.986,2.42203 0.62253,0.95076 0.93066,2.21293 0.81939,3.35637 -0.12181,1.25178 -0.65513,2.38511 -1.53771,3.26769 -1.13036,1.13035 -2.70587,1.69425 -4.2885,1.53491 z m 1.03493,-0.1951 c 1.18339,-0.11723 2.27226,-0.63343 3.1161,-1.47728 1.8107,-1.8107 2.00753,-4.64797 0.46513,-6.70464 -0.37287,-0.49721 -0.94043,-1.00355 -1.48233,-1.32248 -2.4336,-1.43225 -5.58125,-0.61662 -7.01376,1.81742 -1.18057,2.00596 -0.85261,4.55957 0.79752,6.2097 1.08808,1.08807 2.59354,1.62823 4.11734,1.47728 z"
       id="path6224-3-10"
       inkscape:connector-curvature="0" />
    <path
       style="fill:#000000;fill-opacity:1;stroke:none;stroke-width:0;stroke-miterlimit:4;stroke-dasharray:none;stroke-opacity:0"
       d="m 593.40763,249.10671 c -1.20784,-0.12161 -2.35199,-0.66703 -3.21988,-1.53491 -1.12093,-1.12093 -1.68887,-2.68722 -1.53771,-4.24071 0.16069,-1.65126 1.0328,-3.07999 2.43997,-3.99722 0.9421,-0.6141 2.201,-0.91885 3.33844,-0.80816 1.64259,0.15984 3.07448,1.0299 3.986,2.42203 0.62253,0.95076 0.93066,2.21293 0.81939,3.35637 -0.12181,1.25178 -0.65513,2.38511 -1.53771,3.26769 -1.13036,1.13035 -2.70587,1.69425 -4.2885,1.53491 z m 1.03493,-0.1951 c 1.18339,-0.11723 2.27226,-0.63343 3.1161,-1.47728 1.8107,-1.8107 2.00753,-4.64797 0.46513,-6.70464 -0.37287,-0.49721 -0.94043,-1.00355 -1.48233,-1.32248 -2.4336,-1.43225 -5.58125,-0.61662 -7.01376,1.81742 -1.18057,2.00596 -0.85261,4.55957 0.79752,6.2097 1.08808,1.08807 2.59354,1.62823 4.11734,1.47728 z"
       id="path6224-3-9"
       inkscape:connector-curvature="0" />
    <path
       style="fill:#000000;fill-opacity:1;stroke:none;stroke-width:0;stroke-miterlimit:4;stroke-dasharray:none;stroke-opacity:0"
       d="m 595.3924,220.3276 c -1.20784,-0.12161 -2.35199,-0.66703 -3.21988,-1.53491 -1.12093,-1.12093 -1.68887,-2.68722 -1.53771,-4.24071 0.16069,-1.65126 1.0328,-3.07999 2.43997,-3.99722 0.9421,-0.6141 2.201,-0.91885 3.33844,-0.80816 1.64259,0.15984 3.07448,1.0299 3.986,2.42203 0.62253,0.95076 0.93066,2.21293 0.81939,3.35637 -0.12181,1.25178 -0.65513,2.38511 -1.53771,3.26769 -1.13036,1.13035 -2.70587,1.69425 -4.2885,1.53491 z m 1.03493,-0.1951 c 1.18339,-0.11723 2.27226,-0.63343 3.1161,-1.47728 1.8107,-1.8107 2.00753,-4.64797 0.46513,-6.70464 -0.37287,-0.49721 -0.94043,-1.00355 -1.48233,-1.32248 -2.4336,-1.43225 -5.58125,-0.61662 -7.01376,1.81742 -1.18057,2.00596 -0.85261,4.55957 0.79752,6.2097 1.08808,1.08807 2.59354,1.62823 4.11734,1.47728 z"
       id="path6224-3-5"
       inkscape:connector-curvature="0" />
    <path
       style="fill:#000000;fill-opacity:1;stroke:none;stroke-width:0;stroke-miterlimit:4;stroke-dasharray:none;stroke-opacity:0"
       d="m 631.86246,173.93371 c -1.20784,-0.12161 -2.35199,-0.66703 -3.21988,-1.53491 -1.12093,-1.12093 -1.68887,-2.68722 -1.53771,-4.24071 0.16069,-1.65126 1.0328,-3.07999 2.43997,-3.99722 0.9421,-0.6141 2.201,-0.91885 3.33844,-0.80816 1.64259,0.15984 3.07448,1.0299 3.986,2.42203 0.62253,0.95076 0.93066,2.21293 0.81939,3.35637 -0.12181,1.25178 -0.65513,2.38511 -1.53771,3.26769 -1.13036,1.13035 -2.70587,1.69425 -4.2885,1.53491 z m 1.03493,-0.1951 c 1.18339,-0.11723 2.27226,-0.63343 3.1161,-1.47728 1.8107,-1.8107 2.00753,-4.64797 0.46513,-6.70464 -0.37287,-0.49721 -0.94043,-1.00355 -1.48233,-1.32248 -2.4336,-1.43225 -5.58125,-0.61662 -7.01376,1.81742 -1.18057,2.00596 -0.85261,4.55957 0.79752,6.2097 1.08808,1.08807 2.59354,1.62823 4.11734,1.47728 z"
       id="path6224-3-7"
       inkscape:connector-curvature="0" />
    <path
       style="fill:#000000;fill-opacity:1;stroke:none;stroke-width:0;stroke-miterlimit:4;stroke-dasharray:none;stroke-opacity:0"
       d="m 643.52296,147.13938 c -1.20784,-0.12161 -2.35199,-0.66703 -3.21988,-1.53491 -1.12093,-1.12093 -1.68887,-2.68722 -1.53771,-4.24071 0.16069,-1.65126 1.0328,-3.07999 2.43997,-3.99722 0.9421,-0.6141 2.201,-0.91885 3.33844,-0.80816 1.64259,0.15984 3.07448,1.0299 3.986,2.42203 0.62253,0.95076 0.93066,2.21293 0.81939,3.35637 -0.12181,1.25178 -0.65513,2.38511 -1.53771,3.26769 -1.13036,1.13035 -2.70587,1.69425 -4.2885,1.53491 z m 1.03493,-0.1951 c 1.18339,-0.11723 2.27226,-0.63343 3.1161,-1.47728 1.8107,-1.8107 2.00753,-4.64797 0.46513,-6.70464 -0.37287,-0.49721 -0.94043,-1.00355 -1.48233,-1.32248 -2.4336,-1.43225 -5.58125,-0.61662 -7.01376,1.81742 -1.18057,2.00596 -0.85261,4.55957 0.79752,6.2097 1.08808,1.08807 2.59354,1.62823 4.11734,1.47728 z"
       id="path6224-3-29"
       inkscape:connector-curvature="0" />
    <path
       style="fill:#000000;fill-opacity:1;stroke:none;stroke-width:0;stroke-miterlimit:4;stroke-dasharray:none;stroke-opacity:0"
       d="m 675.03112,98.264523 c -1.20784,-0.12161 -2.35199,-0.667031 -3.21988,-1.534911 -1.12093,-1.12093 -1.68887,-2.68722 -1.53771,-4.24071 0.16069,-1.65126 1.0328,-3.07999 2.43997,-3.99722 0.9421,-0.6141 2.201,-0.91885 3.33844,-0.80816 1.64259,0.15984 3.07448,1.0299 3.986,2.42203 0.62253,0.95076 0.93066,2.21293 0.81939,3.35637 -0.12181,1.25178 -0.65513,2.38511 -1.53771,3.26769 -1.13036,1.130351 -2.70587,1.694251 -4.2885,1.534911 z m 1.03493,-0.1951 c 1.18339,-0.11723 2.27226,-0.633431 3.1161,-1.477281 1.8107,-1.8107 2.00753,-4.64797 0.46513,-6.70464 -0.37287,-0.49721 -0.94043,-1.00355 -1.48233,-1.32248 -2.4336,-1.43225 -5.58125,-0.61662 -7.01376,1.81742 -1.18057,2.00596 -0.85261,4.55957 0.79752,6.2097 1.08808,1.088071 2.59354,1.628231 4.11734,1.477281 z"
       id="path6224-3-4"
       inkscape:connector-curvature="0" />
    <path
       style="fill:#000000;fill-opacity:1;stroke:none;stroke-width:0;stroke-miterlimit:4;stroke-dasharray:none;stroke-opacity:0"
       d="m 664.85919,126.29934 c -1.20784,-0.12161 -2.35199,-0.66703 -3.21988,-1.53491 -1.12093,-1.12093 -1.68887,-2.68722 -1.53771,-4.24071 0.16069,-1.65126 1.0328,-3.07999 2.43997,-3.99722 0.9421,-0.6141 2.201,-0.91885 3.33844,-0.80816 1.64259,0.15984 3.07448,1.0299 3.986,2.42203 0.62253,0.95076 0.93066,2.21293 0.81939,3.35637 -0.12181,1.25178 -0.65513,2.38511 -1.53771,3.26769 -1.13036,1.13035 -2.70587,1.69425 -4.2885,1.53491 z m 1.03493,-0.1951 c 1.18339,-0.11723 2.27226,-0.63343 3.1161,-1.47728 1.8107,-1.8107 2.00753,-4.64797 0.46513,-6.70464 -0.37287,-0.49721 -0.94043,-1.00355 -1.48233,-1.32248 -2.4336,-1.43225 -5.58125,-0.61662 -7.01376,1.81742 -1.18057,2.00596 -0.85261,4.55957 0.79752,6.2097 1.08808,1.08807 2.59354,1.62823 4.11734,1.47728 z"
       id="path6224-3-76"
       inkscape:connector-curvature="0" />
    <circle
       style="opacity:1;fill:none;fill-opacity:1;stroke:#000000;stroke-width:0.90688539;stroke-miterlimit:4;stroke-dasharray:none;stroke-opacity:1"
       id="path4195"
       cx="348.10623"
       cy="611.14502"
       r="4.8615179" />
    <circle
       style="opacity:1;fill:none;fill-opacity:1;stroke:#000000;stroke-width:0.90688539;stroke-miterlimit:4;stroke-dasharray:none;stroke-opacity:1"
       id="path4195-6"
       cx="323.64084"
       cy="625.82361"
       r="4.8615179" />
    <circle
       style="opacity:1;fill:none;fill-opacity:1;stroke:#000000;stroke-width:0.90688539;stroke-miterlimit:4;stroke-dasharray:none;stroke-opacity:1"
       id="path4195-7"
       cx="644.11853"
       cy="141.85095"
       r="4.8615179" />
    <circle
       style="opacity:1;fill:none;fill-opacity:1;stroke:#000000;stroke-width:0.90688539;stroke-miterlimit:4;stroke-dasharray:none;stroke-opacity:1"
       id="path4195-9"
       cx="632.33398"
       cy="168.58328"
       r="4.8615179" />
    <circle
       style="opacity:1;fill:none;fill-opacity:1;stroke:#000000;stroke-width:0.90688539;stroke-miterlimit:4;stroke-dasharray:none;stroke-opacity:1"
       id="path4195-5"
       cx="616.82794"
       cy="194.44724"
       r="4.8615179" />
    <circle
       style="opacity:1;fill:none;fill-opacity:1;stroke:#000000;stroke-width:0.90688539;stroke-miterlimit:4;stroke-dasharray:none;stroke-opacity:1"
       id="path4195-8"
       cx="595.9259"
       cy="215.10121"
       r="4.8615179" />
    <circle
       style="opacity:1;fill:none;fill-opacity:1;stroke:#000000;stroke-width:0.90688539;stroke-miterlimit:4;stroke-dasharray:none;stroke-opacity:1"
       id="path4195-1"
       cx="594.06519"
       cy="243.75627"
       r="4.8615179" />
    <circle
       style="opacity:1;fill:none;fill-opacity:1;stroke:#000000;stroke-width:0.90688539;stroke-miterlimit:4;stroke-dasharray:none;stroke-opacity:1"
       id="path4195-63"
       cx="595.9259"
       cy="271.91513"
       r="4.8615179" />
    <circle
       style="opacity:1;fill:none;fill-opacity:1;stroke:#000000;stroke-width:0.90688539;stroke-miterlimit:4;stroke-dasharray:none;stroke-opacity:1"
       id="path4195-75"
       cx="595.6778"
       cy="300.07397"
       r="4.8615179" />
    <circle
       style="opacity:1;fill:none;fill-opacity:1;stroke:#000000;stroke-width:0.90688539;stroke-miterlimit:4;stroke-dasharray:none;stroke-opacity:1"
       id="path4195-99"
       cx="578.93134"
       cy="322.8988"
       r="4.8615179" />
    <circle
       style="opacity:1;fill:none;fill-opacity:1;stroke:#000000;stroke-width:0.90688539;stroke-miterlimit:4;stroke-dasharray:none;stroke-opacity:1"
       id="path4195-4"
       cx="557.409"
       cy="339.02502"
       r="4.8615179" />
    <circle
       style="opacity:1;fill:none;fill-opacity:1;stroke:#000000;stroke-width:0.90688539;stroke-miterlimit:4;stroke-dasharray:none;stroke-opacity:1"
       id="path4195-90"
       cx="537.37531"
       cy="358.3765"
       r="4.8615179" />
    <circle
       style="opacity:1;fill:none;fill-opacity:1;stroke:#000000;stroke-width:0.90688539;stroke-miterlimit:4;stroke-dasharray:none;stroke-opacity:1"
       id="path4195-49"
       cx="514.55048"
       cy="373.94449"
       r="4.8615179" />
    <circle
       style="opacity:1;fill:none;fill-opacity:1;stroke:#000000;stroke-width:0.90688539;stroke-miterlimit:4;stroke-dasharray:none;stroke-opacity:1"
       id="path4195-95"
       cx="497.43188"
       cy="395.40479"
       r="4.8615179" />
    <circle
       style="opacity:1;fill:none;fill-opacity:1;stroke:#000000;stroke-width:0.90688539;stroke-miterlimit:4;stroke-dasharray:none;stroke-opacity:1"
       id="path4195-0"
       cx="492.08157"
       cy="422.56793"
       r="4.8615179" />
    <circle
       style="opacity:1;fill:none;fill-opacity:1;stroke:#000000;stroke-width:0.90688539;stroke-miterlimit:4;stroke-dasharray:none;stroke-opacity:1"
       id="path4195-635"
       cx="481.55579"
       cy="448.35617"
       r="4.8615179" />
    <circle
       style="opacity:1;fill:none;fill-opacity:1;stroke:#000000;stroke-width:0.90688539;stroke-miterlimit:4;stroke-dasharray:none;stroke-opacity:1"
       id="path4195-88"
       cx="472.43341"
       cy="474.84613"
       r="4.8615179" />
    <circle
       style="opacity:1;fill:none;fill-opacity:1;stroke:#000000;stroke-width:0.90688539;stroke-miterlimit:4;stroke-dasharray:none;stroke-opacity:1"
       id="path4195-2"
       cx="460.15329"
       cy="500.28351"
       r="4.8615179" />
    <circle
       style="opacity:1;fill:none;fill-opacity:1;stroke:#000000;stroke-width:0.90688539;stroke-miterlimit:4;stroke-dasharray:none;stroke-opacity:1"
       id="path4195-19"
       cx="440.32968"
       cy="519.4054"
       r="4.8615179" />
    <circle
       style="opacity:1;fill:none;fill-opacity:1;stroke:#000000;stroke-width:0.90688539;stroke-miterlimit:4;stroke-dasharray:none;stroke-opacity:1"
       id="path4195-60"
       cx="414.19061"
       cy="528.35229"
       r="4.8615179" />
    <circle
       style="opacity:1;fill:none;fill-opacity:1;stroke:#000000;stroke-width:0.90688539;stroke-miterlimit:4;stroke-dasharray:none;stroke-opacity:1"
       id="path4195-98"
       cx="393.31439"
       cy="545.54449"
       r="4.8615179" />
    <circle
       style="opacity:1;fill:none;fill-opacity:1;stroke:#000000;stroke-width:0.90688539;stroke-miterlimit:4;stroke-dasharray:none;stroke-opacity:1"
       id="path4195-3"
       cx="380.85886"
       cy="568.52582"
       r="4.8615179" />
    <circle
       style="opacity:1;fill:none;fill-opacity:1;stroke:#000000;stroke-width:0.90688539;stroke-miterlimit:4;stroke-dasharray:none;stroke-opacity:1"
       id="path4195-91"
       cx="368.9296"
       cy="592.73523"
       r="4.8615179" />
    <circle
       style="opacity:1;fill:none;fill-opacity:1;stroke:#000000;stroke-width:0.90688539;stroke-miterlimit:4;stroke-dasharray:none;stroke-opacity:1"
       id="path4195-42"
       cx="333.8436"
       cy="647.46936"
       r="4.8615179" />
    <circle
       style="opacity:1;fill:none;fill-opacity:1;stroke:#000000;stroke-width:0.90688539;stroke-miterlimit:4;stroke-dasharray:none;stroke-opacity:1"
       id="path4195-13"
       cx="316.47601"
       cy="668.521"
       r="4.8615179" />
    <circle
       style="opacity:1;fill:none;fill-opacity:1;stroke:#000000;stroke-width:0.90688539;stroke-miterlimit:4;stroke-dasharray:none;stroke-opacity:1"
       id="path4195-04"
       cx="675.31653"
       cy="93.224197"
       r="4.8615179" />
    <circle
       style="opacity:1;fill:none;fill-opacity:1;stroke:#000000;stroke-width:0.90688539;stroke-miterlimit:4;stroke-dasharray:none;stroke-opacity:1"
       id="path4195-27"
       cx="665.3927"
       cy="121.01092"
       r="4.8615179" />
  </g>
</svg>
